Coordinates
nRows=223
nColumns=2
inDegrees=yes
endheader
time	ankle_angle_r	
3.49294	 -4.989624	
3.52621	 -5.035400	
3.55948	 -4.979624	
3.59274	 -4.974365	
3.62601	 -5.015788	
3.65927	 -5.014593	
3.69254	 -4.983978	
3.72581	 -5.029658	
3.75907	 -4.999043	
3.79234	 -4.987075	
3.8256	 -5.032207	
3.85887	 -5.023142	
3.89214	 -4.974365	
3.9254	 -5.029078	
3.95867	 -5.024982	
3.99194	 -5.007110	
4.0252	 -5.037434	
4.05847	 -5.020142	
4.09173	 -4.991271	
4.125	 -5.036854	
4.15827	 -5.021401	
4.19153	 -5.005949	
4.2248	 -5.035400	
4.25806	 -5.004883	
4.29133	 -4.997497	
4.3246	 -5.050952	
4.35786	 -4.997303	
4.39113	 -4.951430	
4.4244	 -5.004883	
4.45766	 -4.966976	
4.49093	 -4.958433	
4.52419	 -4.959974	
4.55746	 -4.943848	
4.59073	 -4.957852	
4.62399	 -5.013236	
4.65726	 -4.974365	
4.69052	 -4.921876	
4.72379	 -5.002855	
4.75706	 -4.946068	
4.79032	 -4.932597	
4.82359	 -4.965432	
4.85685	 -4.937619	
4.89012	 -4.980497	
4.92339	 -4.998847	
4.95665	 -5.007441	
4.98992	 -5.035400	
5.02319	 -5.025887	
5.05645	 -5.004883	
5.08972	 -5.011833	
5.12298	 -5.060462	
5.15625	 -4.994983	
5.18952	 -5.045925	
5.22278	 -5.050659	
5.25605	 -4.984555	
5.28931	 -5.030086	
5.32258	 -5.035400	
5.35585	 -5.029699	
5.38911	 -5.049446	
5.42238	 -5.020142	
5.45565	 -5.009371	
5.48891	 -5.035400	
5.52218	 -5.054955	
5.55544	 -5.004883	
5.58871	 -5.065918	
5.62198	 -5.039405	
5.65524	 -5.020142	
5.68851	 -5.054471	
5.72177	 -5.046944	
5.75504	 -5.023760	
5.78831	 -5.054181	
5.82157	 -5.035400	
5.85484	 -5.011539	
5.8881	 -5.035400	
5.92137	 -5.023277	
5.95464	 -5.010959	
5.9879	 -5.026025	
6.02117	 -5.038245	
6.05444	 -4.964603	
6.0877	 -5.020142	
6.12097	 -5.017587	
6.15423	 -4.974365	
6.1875	 -5.033039	
6.22077	 -5.004883	
6.25403	 -5.004883	
6.2873	 -4.991695	
6.32056	 -5.016192	
6.35383	 -4.959106	
6.3871	 -5.016579	
6.42036	 -5.004883	
6.45363	 -4.988036	
6.4869	 -4.991115	
6.52016	 -4.974365	
6.55343	 -4.957808	
6.58669	 -5.007285	
6.61996	 -5.034296	
6.65323	 -4.944856	
6.68649	 -5.004883	
6.71976	 -4.974365	
6.75302	 -4.943848	
6.78629	 -4.973744	
6.81956	 -5.034876	
6.85282	 -4.958679	
6.88609	 -4.989624	
6.91935	 -5.004883	
6.95262	 -5.004607	
6.98589	 -4.989747	
7.01915	 -4.989513	
7.05242	 -5.019837	
7.08569	 -5.004883	
7.11895	 -4.989970	
7.15222	 -4.943848	
7.18548	 -5.019063	
7.21875	 -5.019506	
7.25202	 -4.973633	
7.28528	 -4.990453	
7.31855	 -5.046956	
7.35181	 -4.958084	
7.38508	 -5.003764	
7.41835	 -5.002451	
7.45161	 -4.988311	
7.48488	 -5.004883	
7.51815	 -5.033895	
7.55141	 -4.957504	
7.58468	 -5.004883	
7.61794	 -5.020142	
7.65121	 -4.911438	
7.68448	 -4.980333	
7.71774	 -5.018055	
7.75101	 -4.959106	
7.78427	 -4.989624	
7.81754	 -5.004883	
7.85081	 -4.989624	
7.88407	 -5.063348	
7.91734	 -5.007549	
7.9506	 -5.002120	
7.98387	 -5.002023	
8.01714	 -5.029488	
8.0504	 -4.949948	
8.08367	 -4.971216	
8.11694	 -5.016895	
8.1502	 -4.971022	
8.18347	 -4.989624	
8.21673	 -5.001347	
8.25	 -5.012149	
8.28327	 -5.012342	
8.31653	 -4.985797	
8.3498	 -4.951694	
8.38306	 -5.020142	
8.41633	 -5.031284	
8.4496	 -5.000669	
8.48286	 -4.998244	
8.51613	 -5.046253	
8.5494	 -4.942099	
8.58266	 -4.994224	
8.61593	 -5.041266	
8.64919	 -4.989624	
8.68246	 -5.050659	
8.71573	 -5.035400	
8.74899	 -4.943848	
8.78226	 -4.999703	
8.81552	 -5.025418	
8.84879	 -4.994136	
8.88206	 -4.979836	
8.91532	 -5.014575	
8.94859	 -4.983961	
8.98185	 -5.020142	
9.01512	 -5.023687	
9.04839	 -4.989624	
9.08165	 -5.010933	
9.11492	 -4.998736	
9.14819	 -4.974365	
9.18145	 -4.976943	
9.21472	 -4.980802	
9.24798	 -4.972174	
9.28125	 -4.974365	
9.31452	 -5.003078	
9.34778	 -4.945459	
9.38105	 -4.967445	
9.41431	 -4.989624	
9.44758	 -5.020142	
9.48085	 -5.043449	
9.51411	 -4.997576	
9.54738	 -4.981769	
9.58065	 -4.974107	
9.61391	 -5.012480	
9.64718	 -4.997318	
9.68044	 -5.005205	
9.71371	 -4.982253	
9.74698	 -4.982349	
9.78024	 -5.012061	
9.81351	 -5.004883	
9.84677	 -4.974365	
9.88004	 -4.967477	
9.91331	 -4.981157	
9.94657	 -4.991493	
9.97984	 -5.018079	
10.0131	 -5.013640	
10.0464	 -4.996029	
10.0796	 -4.980673	
10.1129	 -4.992460	
10.1462	 -4.943848	
10.1794	 -5.023365	
10.2127	 -5.023558	
10.246	 -4.977975	
10.2792	 -5.010611	
10.3125	 -5.012876	
10.3458	 -4.973021	
10.379	 -5.014704	
10.4123	 -4.974365	
10.4456	 -4.959106	
10.4788	 -4.969217	
10.5121	 -4.984573	
10.5454	 -4.959106	
10.5786	 -4.969508	
10.6119	 -5.015380	
10.6452	 -4.984960	
10.6784	 -5.011006	
10.7117	 -4.965423	
10.745	 -4.978740	
10.7782	 -5.000605	
10.8115	 -4.992340	
10.8448	 -4.943848	
10.878	 -4.974365	
